<svg width="27" height="27" viewBox="0 0 27 27" fill="none" xmlns="http://www.w3.org/2000/svg">
<path d="M27 24.6167C27 25.9277 25.9278 27 24.6169 27H2.38556C1.07466 27 0.00244805 25.9277 0.00244805 24.6167V2.38333C0.00244805 1.07231 1.07466 0 2.38556 0H24.6169C25.9278 0 27 1.07231 27 2.38333V24.6167ZM27 8.48302L24.5618 6.84028C24.6108 6.62973 24.6402 6.41062 24.6402 6.18416C24.6402 4.60017 23.3562 3.31487 21.7711 3.31487C20.1861 3.31487 18.9021 4.59895 18.9021 6.18416C18.9021 6.80723 19.1028 7.38255 19.4406 7.85383L14.1689 15.9158C13.9547 15.8643 13.7307 15.8337 13.5006 15.8337C12.7944 15.8337 12.1493 16.0896 11.6487 16.5131L8.11995 14.4823C8.13831 14.3526 8.15055 14.2216 8.15055 14.087C8.15055 12.503 6.86659 11.2177 5.28152 11.2177C3.69645 11.2177 2.41249 12.5017 2.41249 14.087C2.41249 14.4799 2.49204 14.8545 2.63525 15.196L0 17.6405V20.2417L3.91432 16.6098C4.32069 16.8302 4.7858 16.955 5.28029 16.955C6.03917 16.955 6.72705 16.6588 7.2399 16.1765L10.683 18.1583C10.6487 18.3346 10.6304 18.5158 10.6304 18.7018C10.6304 20.2858 11.9143 21.5699 13.4994 21.5699C15.0845 21.5699 16.3684 20.2858 16.3684 18.7018C16.3684 18.042 16.1432 17.4361 15.7687 16.9514L21.0037 8.94573C21.2485 9.01306 21.5043 9.05223 21.7699 9.05223C22.4345 9.05223 23.0441 8.82455 23.5312 8.44508L26.9988 10.7819L27 8.48302Z" fill="black"/>
</svg>
