<svg width="34" height="34" viewBox="0 0 34 34" fill="none" xmlns="http://www.w3.org/2000/svg">
<g clip-path="url(#clip0_141_3882)">
<path d="M31.1667 21.25C31.1667 26.7325 26.7325 31.1667 21.25 31.1667L22.7375 28.6875" stroke="#138AAD" stroke-width="5" stroke-linecap="round" stroke-linejoin="round"/>
<path d="M2.83331 12.7499C2.83331 7.26742 7.26748 2.83325 12.75 2.83325L11.2625 5.31242" stroke="#138AAD" stroke-width="5" stroke-linecap="round" stroke-linejoin="round"/>
<path d="M31.1667 5.94992V6.10575C31.1667 6.50242 30.855 6.81409 30.4583 6.81409H17.7083C17.3117 6.81409 17 6.50242 17 6.10575V5.94992C17 3.45658 17.6233 2.83325 20.145 2.83325H28.0217C30.5433 2.83325 31.1667 3.45658 31.1667 5.94992Z" fill="#138AAD"/>
<path d="M17.7083 8.22876C17.3117 8.22876 17 8.54043 17 8.93709V10.3538V11.7563C17 14.2496 17.6233 14.8729 20.145 14.8729H28.0217C30.5433 14.8729 31.1667 14.2496 31.1667 11.7563V10.3538V8.93709C31.1667 8.54043 30.855 8.22876 30.4583 8.22876H17.7083Z" fill="#138AAD"/>
<path d="M17 22.2417V22.3975C17 22.7942 16.6883 23.1058 16.2916 23.1058H3.54165C3.14498 23.1058 2.83331 22.7942 2.83331 22.3975V22.2417C2.83331 19.7483 3.45665 19.125 5.97831 19.125H13.855C16.3766 19.125 17 19.7483 17 22.2417Z" fill="#138AAD"/>
<path d="M3.54165 24.5205C3.14498 24.5205 2.83331 24.8322 2.83331 25.2288V26.6455V28.048C2.83331 30.5413 3.45665 31.1647 5.97831 31.1647H13.855C16.3766 31.1647 17 30.5413 17 28.048V26.6455V25.2288C17 24.8322 16.6883 24.5205 16.2916 24.5205H3.54165Z" fill="#138AAD"/>
</g>
<defs>
<clipPath id="clip0_141_3882">
<rect width="34" height="34" fill="white"/>
</clipPath>
</defs>
</svg>
