<svg width="34" height="34" viewBox="0 0 34 34" fill="none" xmlns="http://www.w3.org/2000/svg">
<path fill-rule="evenodd" clip-rule="evenodd" d="M17.0736 1.77075H16.9263C15.6534 1.77071 14.5921 1.77068 13.7495 1.88396C12.8601 2.00354 12.0571 2.26657 11.4119 2.91182C10.7666 3.55707 10.5036 4.36004 10.384 5.24941C10.3028 5.85343 10.2798 7.29784 10.2733 8.53627C7.40849 8.62984 5.68841 8.96428 4.49304 10.1596C2.83331 11.8194 2.83331 14.4907 2.83331 19.8333C2.83331 25.1758 2.83331 27.8472 4.49304 29.5068C6.15276 31.1666 8.82406 31.1666 14.1666 31.1666H19.8333C25.1758 31.1666 27.8473 31.1666 29.5069 29.5068C31.1666 27.8472 31.1666 25.1758 31.1666 19.8333C31.1666 14.4907 31.1666 11.8194 29.5069 10.1596C28.3115 8.96428 26.5915 8.62984 23.7266 8.53627C23.7201 7.29784 23.6971 5.85343 23.616 5.24941C23.4964 4.36004 23.2333 3.55707 22.588 2.91182C21.9429 2.26657 21.1399 2.00354 20.2505 1.88396C19.4079 1.77068 18.3465 1.77071 17.0736 1.77075ZM21.6012 8.50258C21.5948 7.30316 21.5744 6.01235 21.5099 5.53257C21.422 4.87882 21.2701 4.59904 21.0855 4.41442C20.9009 4.2298 20.6211 4.07791 19.9673 3.99002C19.2831 3.89802 18.3656 3.89575 17 3.89575C15.6343 3.89575 14.7169 3.89802 14.0326 3.99002C13.3789 4.07791 13.0991 4.2298 12.9145 4.41442C12.7299 4.59904 12.578 4.87882 12.4901 5.53257C12.4256 6.01235 12.4052 7.30316 12.3988 8.50258C12.9533 8.49992 13.5417 8.49992 14.1666 8.49992H19.8333C20.4583 8.49992 21.0467 8.49992 21.6012 8.50258ZM17 13.1041C17.5868 13.1041 18.0625 13.5798 18.0625 14.1666V14.181C19.6049 14.5696 20.8958 15.7858 20.8958 17.4721C20.8958 18.0589 20.4201 18.5346 19.8333 18.5346C19.2465 18.5346 18.7708 18.0589 18.7708 17.4721C18.7708 16.9281 18.1676 16.1736 17 16.1736C15.8324 16.1736 15.2291 16.9281 15.2291 17.4721C15.2291 18.0162 15.8324 18.7708 17 18.7708C18.9619 18.7708 20.8958 20.1305 20.8958 22.1944C20.8958 23.8807 19.6049 25.0969 18.0625 25.4855V25.4999C18.0625 26.0867 17.5868 26.5624 17 26.5624C16.4132 26.5624 15.9375 26.0867 15.9375 25.4999V25.4855C14.395 25.0969 13.1041 23.8807 13.1041 22.1944C13.1041 21.6076 13.5798 21.1319 14.1666 21.1319C14.7534 21.1319 15.2291 21.6076 15.2291 22.1944C15.2291 22.7384 15.8324 23.4929 17 23.4929C18.1676 23.4929 18.7708 22.7384 18.7708 22.1944C18.7708 21.6503 18.1676 20.8958 17 20.8958C15.038 20.8958 13.1041 19.5362 13.1041 17.4721C13.1041 15.7858 14.395 14.5696 15.9375 14.181V14.1666C15.9375 13.5798 16.4132 13.1041 17 13.1041Z" fill="#4ED1F8"/>
</svg>
