<svg width="36" height="36" viewBox="0 0 36 36" fill="none" xmlns="http://www.w3.org/2000/svg">
<path d="M33 6V10.5C33 11.2956 32.6839 12.0587 32.1213 12.6213C31.5587 13.1839 30.7956 13.5 30 13.5H22.5C21.7044 13.5 20.9413 13.1839 20.3787 12.6213C19.8161 12.0587 19.5 11.2956 19.5 10.5V6C19.5 5.20435 19.8161 4.44129 20.3787 3.87868C20.9413 3.31607 21.7044 3 22.5 3H30C30.7956 3 31.5587 3.31607 32.1213 3.87868C32.6839 4.44129 33 5.20435 33 6ZM13.5 22.5H6C5.20435 22.5 4.44129 22.8161 3.87868 23.3787C3.31607 23.9413 3 24.7044 3 25.5V30C3 30.7956 3.31607 31.5587 3.87868 32.1213C4.44129 32.6839 5.20435 33 6 33H13.5C14.2956 33 15.0587 32.6839 15.6213 32.1213C16.1839 31.5587 16.5 30.7956 16.5 30V25.5C16.5 24.7044 16.1839 23.9413 15.6213 23.3787C15.0587 22.8161 14.2956 22.5 13.5 22.5Z" fill="#3F9FEB"/>
<path d="M16.5 6V16.5C16.5 17.2956 16.1839 18.0587 15.6213 18.6213C15.0587 19.1839 14.2956 19.5 13.5 19.5H6C5.20435 19.5 4.44129 19.1839 3.87868 18.6213C3.31607 18.0587 3 17.2956 3 16.5V6C3 5.20435 3.31607 4.44129 3.87868 3.87868C4.44129 3.31607 5.20435 3 6 3H13.5C14.2956 3 15.0587 3.31607 15.6213 3.87868C16.1839 4.44129 16.5 5.20435 16.5 6ZM30 16.5H22.5C21.7044 16.5 20.9413 16.8161 20.3787 17.3787C19.8161 17.9413 19.5 18.7044 19.5 19.5V30C19.5 30.7956 19.8161 31.5587 20.3787 32.1213C20.9413 32.6839 21.7044 33 22.5 33H30C30.7956 33 31.5587 32.6839 32.1213 32.1213C32.6839 31.5587 33 30.7956 33 30V19.5C33 18.7044 32.6839 17.9413 32.1213 17.3787C31.5587 16.8161 30.7956 16.5 30 16.5Z" fill="black"/>
</svg>
