<svg width="33" height="33" viewBox="0 0 33 33" fill="none" xmlns="http://www.w3.org/2000/svg">
<g clip-path="url(#clip0_141_3869)">
<path d="M18.2992 0.402995C18.8361 -0.134332 19.7068 -0.134331 20.2437 0.402995L24.3631 4.52506C24.9 5.06241 24.9 5.93362 24.3629 6.47093L20.2345 10.6017C19.6976 11.1391 18.8269 11.1391 18.29 10.6017C17.753 10.0644 17.753 9.19322 18.29 8.6559L20.087 6.85772H9.625C8.8656 6.85772 8.25 6.2417 8.25 5.48181C8.25 4.72191 8.8656 4.1059 9.625 4.1059L20.0551 4.10589L18.2992 2.34883C17.7622 1.81149 17.7622 0.94032 18.2992 0.402995Z" fill="#1689AB"/>
<path fill-rule="evenodd" clip-rule="evenodd" d="M16.5 28.8723C19.5375 28.8723 22 26.4083 22 23.3687C22 20.3291 19.5375 17.865 16.5 17.865C13.4624 17.865 11 20.3291 11 23.3687C11 26.4083 13.4624 28.8723 16.5 28.8723ZM16.5 26.2535C14.9077 26.2535 13.6171 24.9619 13.6171 23.3687C13.6171 21.7754 14.9077 20.4838 16.5 20.4838C18.0922 20.4838 19.383 21.7754 19.383 23.3687C19.383 24.9619 18.0922 26.2535 16.5 26.2535Z" fill="#1689AB"/>
<path d="M9.625 23.3686C9.625 24.1285 9.0094 24.7445 8.25 24.7445C7.49061 24.7445 6.875 24.1285 6.875 23.3686C6.875 22.6087 7.49061 21.9927 8.25 21.9927C9.0094 21.9927 9.625 22.6087 9.625 23.3686Z" fill="#1689AB"/>
<path d="M26.125 23.3686C26.125 24.1285 25.5094 24.7445 24.75 24.7445C23.9906 24.7445 23.375 24.1285 23.375 23.3686C23.375 22.6087 23.9906 21.9927 24.75 21.9927C25.5094 21.9927 26.125 22.6087 26.125 23.3686Z" fill="#1689AB"/>
<path fill-rule="evenodd" clip-rule="evenodd" d="M28.875 13.7373C31.1532 13.7373 33 15.5854 33 17.865V28.8723C33 31.152 31.1532 33 28.875 33H4.125C1.84683 33 0 31.152 0 28.8723V17.865C0 15.5854 1.84683 13.7373 4.125 13.7373H28.875ZM5.5 16.4892H27.5C27.5 16.8505 27.5711 17.2083 27.7093 17.5422C27.8476 17.876 28.0501 18.1795 28.3055 18.4349C28.5608 18.6904 28.864 18.8932 29.1976 19.0314C29.5313 19.1697 29.8889 19.241 30.25 19.241V27.4965C29.8889 27.4965 29.5313 27.5675 29.1976 27.7059C28.864 27.8442 28.5608 28.0469 28.3055 28.3023C28.0501 28.558 27.8476 28.8613 27.7093 29.1951C27.5711 29.529 27.5 29.8869 27.5 30.2482H5.5C5.5 29.8869 5.42887 29.529 5.29067 29.1951C5.15247 28.8613 4.9499 28.558 4.69454 28.3023C4.43919 28.0469 4.13603 27.8442 3.80238 27.7059C3.46874 27.5675 3.11113 27.4965 2.75 27.4965V19.241C3.11113 19.241 3.46874 19.1697 3.80238 19.0314C4.13603 18.8932 4.43919 18.6904 4.69454 18.4349C4.9499 18.1795 5.15247 17.876 5.29067 17.5422C5.42887 17.2083 5.5 16.8505 5.5 16.4892Z" fill="#1689AB"/>
</g>
<defs>
<clipPath id="clip0_141_3869">
<rect width="33" height="33" fill="white"/>
</clipPath>
</defs>
</svg>
