<svg width="33" height="33" viewBox="0 0 33 33" fill="none" xmlns="http://www.w3.org/2000/svg">
<path d="M18.7057 29.4528C17.7471 28.9306 17.1507 27.9263 17.1507 26.8346V18.4094C17.6888 18.6363 18.2801 18.7619 18.9008 18.7619C20.1635 18.7619 21.3044 18.2422 22.1223 17.4053C20.9403 15.7803 19.025 14.7229 16.8618 14.7229H15.2467H11.3487H9.73354C6.1426 14.7229 3.23151 17.6339 3.23151 21.2249V32.0434H23.3636V31.9912L18.7057 29.4528Z" fill="#A9D2FF"/>
<path d="M29.7685 17.4527C29.2401 17.4527 28.8118 17.881 28.8118 18.4094V26.8346C28.8118 27.5764 28.4071 28.2577 27.7557 28.6127L23.4595 30.9537L19.1635 28.6127C18.5121 28.2578 18.1074 27.5765 18.1074 26.8346V19.6616C18.3685 19.6996 18.6332 19.7187 18.9008 19.7187C18.9819 19.7187 19.0627 19.7161 19.1433 19.7126C19.1645 19.7116 19.1857 19.7108 19.2067 19.7096C19.2794 19.7056 19.3519 19.7005 19.4239 19.6936C19.4583 19.6904 19.4925 19.686 19.5267 19.6822C19.5621 19.6781 19.5975 19.6737 19.6328 19.669C20.6052 19.5397 21.5145 19.1536 22.2839 18.5434C22.3073 18.525 22.3307 18.5065 22.3539 18.4875C22.3816 18.4649 22.4091 18.4421 22.4364 18.4188C22.4915 18.372 22.5457 18.3243 22.599 18.2754C22.6079 18.2672 22.6165 18.2588 22.6253 18.2506C22.6864 18.1937 22.7463 18.1354 22.8048 18.0757C22.8054 18.0752 22.8059 18.0747 22.8064 18.0741C22.8064 18.0741 22.8067 18.0739 22.8068 18.0737C23.0481 17.8271 23.2674 17.5568 23.4603 17.2647C23.9223 17.9613 24.5436 18.553 25.2663 18.9754C25.7224 19.242 26.3084 19.0883 26.575 18.6321C26.8416 18.176 26.6879 17.59 26.2317 17.3235C25.5887 16.9477 25.0693 16.3663 24.7692 15.6863C24.6162 15.3396 24.2729 15.1159 23.894 15.1159H23.0248C22.6459 15.1159 22.3026 15.3395 22.1496 15.6863C22.1209 15.7514 22.089 15.8145 22.0568 15.8773C21.2273 15.0735 20.2232 14.4744 19.1314 14.1237C20.2112 13.0958 20.8863 11.6463 20.8863 10.0412V5.63971C20.8863 5.11133 20.458 4.68303 19.9296 4.68303C19.4012 4.68303 18.9729 5.11133 18.9729 5.63971V10.041C18.9729 12.0797 17.3271 13.7403 15.2945 13.7661H11.3008C9.26819 13.7402 7.62238 12.0796 7.62238 10.041V5.63971C7.62238 3.58501 9.29404 1.91336 11.3487 1.91336H15.2467C15.7751 1.91336 16.2034 1.48506 16.2034 0.956678C16.2034 0.428291 15.7751 0 15.2467 0H11.3487C8.239 0 5.70903 2.52998 5.70903 5.63971V10.041C5.70903 11.6448 6.38314 13.0934 7.46151 14.1212C4.45664 15.0846 2.27496 17.9042 2.27496 21.2248V32.0433C2.27496 32.5716 2.70325 32.9999 3.23164 32.9999H23.3638C23.3817 32.9999 23.3992 32.9982 23.4169 32.9972C23.4311 32.9979 23.4453 32.9999 23.4595 32.9999C23.617 32.9999 23.7746 32.9611 23.9174 32.8833L28.6712 30.2929C29.9382 29.6025 30.7252 28.2775 30.7252 26.8347V18.4095C30.7252 17.881 30.2969 17.4527 29.7685 17.4527ZM4.18845 31.0866V21.2249C4.18845 18.1671 6.67608 15.6796 9.73374 15.6796H11.3009C11.3169 15.6796 11.3328 15.6808 11.3487 15.6808H12.341V24.9728C12.341 25.5012 12.7693 25.9295 13.2977 25.9295C13.8261 25.9295 14.2543 25.5012 14.2543 24.9728V15.6808H15.2466C15.2627 15.6808 15.2784 15.6798 15.2944 15.6796H16.8616C18.3239 15.6796 19.7246 16.2654 20.7548 17.2792C20.3534 17.5254 19.9037 17.6939 19.4283 17.7655C19.4252 17.7659 19.4221 17.7666 19.4189 17.7671C19.3448 17.778 19.27 17.7856 19.1949 17.7918C19.1827 17.7928 19.1708 17.7947 19.1586 17.7956C19.0788 17.8014 18.9984 17.8041 18.9177 17.8045C18.9119 17.8045 18.9062 17.805 18.9005 17.805C18.4221 17.805 17.9584 17.7118 17.5223 17.5278C17.2269 17.4031 16.8887 17.4348 16.6215 17.6121C16.3544 17.7893 16.1937 18.0886 16.1937 18.4093V26.8345C16.1937 27.2855 16.2706 27.7248 16.4149 28.1369C16.7325 29.0435 17.3767 29.8182 18.2477 30.2928L19.7042 31.0864H4.18845V31.0866Z" fill="#1B8C98"/>
<path d="M21.762 24.3134L23.3639 25.2064L26.0671 22.8147" fill="#A9D2FF"/>
<path d="M23.3635 26.1631C23.2041 26.1631 23.0438 26.1233 22.898 26.042L21.2961 25.1491C20.8346 24.8919 20.6689 24.3092 20.9262 23.8476C21.1835 23.386 21.7661 23.2204 22.2277 23.4778L23.2377 24.0407L25.4332 22.0982C25.8288 21.748 26.4335 21.7849 26.7837 22.1808C27.1338 22.5764 27.0968 23.1811 26.7011 23.5312L23.9979 25.923C23.8186 26.0813 23.5921 26.1631 23.3635 26.1631Z" fill="#1B8C98"/>
</svg>
