<svg width="42" height="43" viewBox="0 0 42 43" fill="none" xmlns="http://www.w3.org/2000/svg">
<path d="M10.29 35.1189L5.42717 27.6275C5.36942 27.539 5.32937 27.4396 5.30932 27.3352C5.28928 27.2307 5.28964 27.1232 5.31039 27.0189C5.33113 26.9146 5.37185 26.8155 5.43019 26.7274C5.48853 26.6393 5.56333 26.5638 5.65029 26.5055L8.72154 24.4899C8.89352 24.3771 9.10131 24.3366 9.30173 24.3766C9.50216 24.4167 9.67981 24.5342 9.79779 24.7049L14.759 32.0955C14.8174 32.1832 14.8583 32.2819 14.8793 32.3858C14.9004 32.4897 14.9012 32.5969 14.8816 32.7011C14.8621 32.8054 14.8227 32.9047 14.7656 32.9933C14.7086 33.0819 14.635 33.1581 14.549 33.2175L11.3859 35.3406C11.2998 35.4001 11.2031 35.4415 11.1014 35.4625C10.9996 35.4836 10.8948 35.4838 10.7929 35.4632C10.691 35.4426 10.5942 35.4015 10.5079 35.3425C10.4215 35.2834 10.3475 35.2074 10.29 35.1189Z" stroke="#4ED1F8" stroke-width="2" stroke-linecap="round"/>
<path d="M10.3425 25.4641L15.4613 22.1719C15.6253 22.0654 15.8089 21.9943 16.0008 21.9631C16.1926 21.9319 16.3887 21.9412 16.5769 21.9905C18.3947 22.4675 23.8613 24.0061 25.876 24.7318C27.3919 25.276 28.0022 26.8079 27.3919 27.8157C26.565 29.1594 25.305 29.0318 24.3994 28.7697L24.0385 28.6354L20.4553 27.0699" stroke="#4ED1F8" stroke-width="2" stroke-linecap="round"/>
<path d="M14.3128 31.4101L15.9862 30.4292L25.4559 33.1167C25.5531 33.1449 25.6551 33.151 25.7548 33.1348C25.8545 33.1185 25.9496 33.0803 26.0334 33.0226C27.3459 32.1492 33.0619 28.2792 35.8772 26.2434C36.1054 26.1137 36.2986 25.928 36.4394 25.7029C36.5802 25.4779 36.6641 25.2205 36.6836 24.954C36.7031 24.6875 36.6576 24.4202 36.5512 24.1762C36.4448 23.9321 36.2809 23.719 36.0741 23.5559C35.7465 23.2539 35.332 23.0689 34.8929 23.0289C34.4538 22.989 34.0139 23.0961 33.6394 23.3342C32.655 23.8986 29.9184 25.9814 29.9184 25.9814" stroke="#4ED1F8" stroke-width="2" stroke-linecap="round"/>
<path d="M28.9538 9.70187C28.6439 8.97102 28.1294 8.35057 27.4753 7.91888C26.8212 7.48719 26.0569 7.26362 25.2788 7.2764C21.9647 7.2764 21.84 9.70187 21.84 9.70187C21.84 9.70187 21.3413 12.6984 25.3969 13.0142C29.6166 13.3434 28.9538 16.3266 28.9538 16.3266C28.9538 16.3266 28.5272 18.92 25.3969 19.0812C22.2666 19.2425 21.3019 15.8831 21.3019 15.8831" stroke="#4ED1F8" stroke-width="2"/>
<path d="M25.2787 5.11963V21.5671" stroke="#4ED1F8" stroke-width="2"/>
</svg>
