<svg width="30" height="30" viewBox="0 0 30 30" fill="none" xmlns="http://www.w3.org/2000/svg">
<path d="M25 2.5H10C9.33696 2.5 8.70107 2.76339 8.23223 3.23223C7.76339 3.70107 7.5 4.33696 7.5 5V20C7.5 20.663 7.76339 21.2989 8.23223 21.7678C8.70107 22.2366 9.33696 22.5 10 22.5H25C25.663 22.5 26.2989 22.2366 26.7678 21.7678C27.2366 21.2989 27.5 20.663 27.5 20V5C27.5 4.33696 27.2366 3.70107 26.7678 3.23223C26.2989 2.76339 25.663 2.5 25 2.5ZM17.5 5.625C18.3288 5.625 19.1237 5.95424 19.7097 6.54029C20.2958 7.12634 20.625 7.9212 20.625 8.75C20.625 9.5788 20.2958 10.3737 19.7097 10.9597C19.1237 11.5458 18.3288 11.875 17.5 11.875C16.6712 11.875 15.8763 11.5458 15.2903 10.9597C14.7042 10.3737 14.375 9.5788 14.375 8.75C14.375 7.9212 14.7042 7.12634 15.2903 6.54029C15.8763 5.95424 16.6712 5.625 17.5 5.625ZM23.75 18.75H11.25V18.4375C11.25 16.1263 14.0675 13.75 17.5 13.75C20.9325 13.75 23.75 16.1263 23.75 18.4375V18.75Z" fill="#1B8C98"/>
<path d="M5 10H2.5V25C2.5 26.3787 3.62125 27.5 5 27.5H20V25H5V10Z" fill="#1B8C98"/>
</svg>
