<svg width="34" height="34" viewBox="0 0 34 34" fill="none" xmlns="http://www.w3.org/2000/svg">
<path d="M24.9603 2.125H31.875V9.03975H24.9603V2.125Z" fill="#1B8C98"/>
<path d="M12.1943 7.82314L16.2563 2.2312L21.8503 6.29526L17.7863 11.8893L12.1943 7.82314Z" fill="#1B8C98"/>
<path d="M21.7568 13.7297L28.2955 11.4751L30.5469 18.0127L24.0125 20.2673L21.7568 13.7297Z" fill="#1B8C98"/>
<path d="M2.125 8.9812H9.03975V15.896H2.125V8.9812Z" fill="#4ED1F8"/>
<path d="M2.125 17H9.03975V23.9147H2.125V17Z" fill="#4ED1F8"/>
<path d="M10.0853 17H17V23.9147H10.0853V17Z" fill="#4ED1F8"/>
<path d="M2.125 24.9602H9.03975V31.875H2.125V24.9602Z" fill="#4ED1F8"/>
<path d="M10.0853 24.9602H17V31.875H10.0853V24.9602Z" fill="#4ED1F8"/>
<path d="M18.1039 24.9602H25.0187V31.875H18.1039V24.9602Z" fill="#4ED1F8"/>
</svg>
