<svg width="44" height="44" viewBox="0 0 44 44" fill="none" xmlns="http://www.w3.org/2000/svg">
<path d="M13.7378 22H9.14221C8.46719 22 7.91998 22.5472 7.91998 23.2222V34.8578C7.91998 35.5328 8.46719 36.08 9.14221 36.08H13.7378C14.4128 36.08 14.96 35.5328 14.96 34.8578V23.2222C14.96 22.5472 14.4128 22 13.7378 22Z" fill="#1B586A"/>
<path d="M24.2978 7.91992H19.7022C19.0272 7.91992 18.48 8.46713 18.48 9.14214V34.8577C18.48 35.5327 19.0272 36.0799 19.7022 36.0799H24.2978C24.9728 36.0799 25.52 35.5327 25.52 34.8577V9.14214C25.52 8.46713 24.9728 7.91992 24.2978 7.91992Z" fill="#1B586A"/>
<path d="M34.8578 17.3066H30.2622C29.5872 17.3066 29.04 17.8538 29.04 18.5289V34.8578C29.04 35.5328 29.5872 36.08 30.2622 36.08H34.8578C35.5328 36.08 36.08 35.5328 36.08 34.8578V18.5289C36.08 17.8538 35.5328 17.3066 34.8578 17.3066Z" fill="#1B586A"/>
</svg>
