<svg width="38" height="38" viewBox="0 0 38 38" fill="none" xmlns="http://www.w3.org/2000/svg">
<path d="M14.4759 22.0764C14.3241 21.8528 14.1895 21.619 14.0739 21.3783L12.2672 21.5805C12.148 21.5935 12.0372 21.5185 12.0055 21.403L11.735 20.4192C11.7029 20.3024 11.7615 20.1798 11.8725 20.1314L13.5429 19.404C13.5255 19.1335 13.5255 18.8631 13.5428 18.5959L11.8726 17.8686C11.7617 17.8203 11.7031 17.698 11.735 17.5813L12.0055 16.5902C12.0372 16.4742 12.1485 16.3982 12.2684 16.4126L14.069 16.6211C14.1868 16.3801 14.3212 16.1495 14.4761 15.9229L13.3957 14.4566C13.3243 14.3597 13.3344 14.2252 13.4196 14.1401L13.6077 13.9518L11.6881 12.0325C9.88793 13.919 8.89941 16.3836 8.89941 19C8.89941 21.6163 9.88786 24.0808 11.688 25.9676L13.6102 24.0455L13.4187 23.8523C13.3341 23.767 13.3245 23.6327 13.396 23.5362L14.4759 22.0764Z" fill="#1689AB"/>
<path d="M11.3437 26.3119C9.45161 24.3332 8.41248 21.7463 8.41248 19C8.41248 16.2536 9.45161 13.6669 11.3437 11.6882L9.99749 10.342C5.35882 15.1692 5.35986 22.8354 10.0008 27.6548L11.3437 26.3119Z" fill="#1689AB"/>
<path d="M26.3128 26.6553C24.3371 28.5478 21.7508 29.5874 19.0023 29.5874C16.2545 29.5874 13.6669 28.5483 11.6881 26.6565L12.0324 26.3122C13.9191 28.1122 16.3845 29.1005 19.0024 29.1005C21.6206 29.1005 24.0848 28.1117 25.9685 26.3113L24.0478 24.3924L23.8595 24.5807C23.7744 24.6658 23.6399 24.6759 23.5428 24.6045L22.0765 23.5238C21.8462 23.681 21.6157 23.8142 21.3786 23.9267L21.5867 25.732C21.6006 25.852 21.5242 25.964 21.4075 25.9952L20.417 26.2584C20.3963 26.264 20.3752 26.2667 20.3544 26.2667C20.2596 26.2667 20.1707 26.2109 20.1313 26.1204L19.4049 24.4528C19.138 24.4735 18.8683 24.4735 18.6014 24.4528L17.875 26.1204C17.827 26.2305 17.7061 26.2892 17.5897 26.2585L16.5918 25.9952C16.4748 25.9642 16.3983 25.8521 16.4121 25.7319L16.6203 23.9266C16.3838 23.8142 16.1534 23.6812 15.923 23.5237L14.4566 24.6045C14.3594 24.6761 14.2244 24.6656 14.1393 24.5797L13.9529 24.3917L14.1243 24.2202C14.2193 24.1252 14.2193 23.9711 14.1243 23.8759C14.0292 23.7809 13.8751 23.7809 13.78 23.8759L6.91295 30.7429C6.81788 30.8379 6.81788 30.9921 6.91295 31.0872C6.96045 31.1347 7.02272 31.1584 7.08491 31.1585H7.08477C7.0225 31.1585 6.96015 31.1347 6.91265 31.0872C6.81758 30.9922 6.81758 30.838 6.91265 30.7429L8.39569 29.26H5.88702V32.1129H8.73977V29.6047L10.3452 27.9992C12.684 30.2492 15.7471 31.4856 18.9995 31.4856C22.253 31.4856 25.3171 30.2485 27.6563 27.9973L26.3128 26.6553Z" fill="#1689AB"/>
<path d="M6.91273 7.25753C6.81765 7.16246 6.81765 7.0083 6.91273 6.9133C6.9603 6.86565 7.02264 6.84198 7.08499 6.84198C7.02272 6.84205 6.96052 6.86573 6.91302 6.9133C6.81795 7.0083 6.81795 7.16246 6.91302 7.25753L13.78 14.1242C13.8275 14.1717 13.8898 14.1955 13.9522 14.1955C14.0139 14.1955 14.0757 14.172 14.123 14.1253L13.9117 14.3365L14.972 15.7756C15.0349 15.861 15.0353 15.9773 14.9729 16.0632C14.7574 16.3595 14.582 16.6605 14.4369 16.9832C14.3934 17.0799 14.292 17.1376 14.1868 17.1252L12.42 16.9205L12.26 17.5066L13.8963 18.2192C13.9928 18.2612 14.0513 18.3604 14.0414 18.4651C14.0085 18.817 14.0085 19.1772 14.0415 19.5358C14.0511 19.6403 13.9926 19.7393 13.8963 19.7814L12.2604 20.4939L12.4198 21.0738L14.1946 20.8752C14.3007 20.8637 14.4018 20.9216 14.4445 21.0192C14.5852 21.3397 14.7629 21.6485 14.9728 21.9372C15.0353 22.0231 15.0349 22.1397 14.9715 22.2252L13.9113 23.6581L14.337 24.0879L15.7752 23.0279C15.8606 22.9648 15.977 22.9646 16.0628 23.027C16.3664 23.2478 16.6659 23.4204 16.9783 23.5546C17.0772 23.5969 17.1364 23.6992 17.1241 23.8061L16.9197 25.5784L17.5118 25.7346L18.2254 24.0967C18.2681 23.9987 18.3699 23.94 18.476 23.9521C18.8233 23.9914 19.1826 23.9914 19.5299 23.9521C19.6366 23.9401 19.7377 23.9987 19.7804 24.0967L20.4939 25.7342L21.0787 25.5786L20.8744 23.806C20.8621 23.6992 20.9214 23.5969 21.0202 23.5545C21.3337 23.4199 21.6333 23.2472 21.9364 23.0269C22.0222 22.9644 22.1386 22.9648 22.224 23.0278L23.663 24.0884L24.0938 23.6577L23.0275 22.2257C22.9631 22.1392 22.9633 22.0206 23.028 21.9344C23.2255 21.6708 23.4003 21.3703 23.5625 21.0157C23.6062 20.9201 23.7064 20.8633 23.8109 20.875L25.5849 21.0735L25.7397 20.4942L24.1025 19.7813C24.0046 19.7386 23.9459 19.6371 23.9577 19.5309C23.9974 19.1755 23.9974 18.8184 23.9577 18.4698C23.9457 18.3635 24.0044 18.2617 24.1025 18.219L25.7399 17.5059L25.5846 16.9205L23.8117 17.1251C23.706 17.1373 23.6051 17.0797 23.5616 16.9828C23.4083 16.6405 23.2337 16.3405 23.0279 16.0659C22.9634 15.9797 22.963 15.8615 23.0272 15.7749L24.0933 14.3369L23.8944 14.1398C23.888 14.1346 23.8812 14.13 23.8752 14.1241C23.8698 14.1188 23.8658 14.1124 23.8609 14.1067L23.6638 13.9114L22.224 14.9728C22.1386 15.0357 22.0222 15.0361 21.9365 14.9738C21.6321 14.7525 21.3325 14.58 21.0204 14.4463C20.9214 14.4039 20.8621 14.3016 20.8744 14.1946L21.0789 12.4205L20.4933 12.2607L19.7804 13.8969C19.7384 13.9933 19.6392 14.0518 19.5345 14.0421C19.1841 14.0091 18.8216 14.0091 18.4713 14.0421C18.3667 14.0519 18.2674 13.9934 18.2254 13.8969L17.5124 12.2603L16.9196 12.421L17.1241 14.1947C17.1364 14.3016 17.0771 14.404 16.9781 14.4464C16.6671 14.5796 16.3676 14.7521 16.0627 14.9738C15.977 15.0362 15.8606 15.0359 15.7751 14.9729L14.3361 13.9121L14.1251 14.123C14.219 14.0278 14.2187 13.8747 14.124 13.78L13.9518 13.6078L14.1399 13.4197C14.2249 13.3346 14.3595 13.3245 14.4564 13.3959L15.9227 14.4768C16.1539 14.3189 16.3842 14.1859 16.6201 14.0739L16.4119 12.2686C16.3981 12.149 16.4738 12.0373 16.59 12.0057L17.5879 11.7353C17.7041 11.7039 17.8264 11.7623 17.8747 11.873L18.6023 13.5433C18.8683 13.526 19.1373 13.526 19.4033 13.5433L20.1311 11.873C20.1794 11.7622 20.3018 11.7037 20.4183 11.7354L21.4088 12.0058C21.5248 12.0375 21.6002 12.1491 21.5865 12.2686L21.3784 14.0737C21.6149 14.1859 21.8454 14.3191 22.0763 14.4767L23.5426 13.3959C23.6392 13.3247 23.7731 13.3344 23.8584 13.4188L24.0484 13.607L25.9682 11.6892C24.0842 9.88858 21.6202 8.89984 19.0021 8.89984C16.3844 8.89984 13.9191 9.88814 12.0323 11.6882L11.688 11.3439C13.6667 9.4521 16.2543 8.41297 19.0021 8.41297C21.7504 8.41297 24.3367 9.45247 26.3126 11.3451L27.6594 9.99954C25.3199 7.74967 22.2543 6.51297 18.9993 6.51297C15.7452 6.51297 12.6807 7.74878 10.3416 9.99761L8.73947 8.39567V5.88745H5.88702V8.74049H8.39584L6.91273 7.25753ZM17.1409 17.1401C17.6387 16.6423 18.3 16.3677 19.0023 16.3677C19.7049 16.3677 20.3646 16.6425 20.8598 17.1414C21.3558 17.6339 21.6304 18.2919 21.6317 18.9927C21.633 19.6968 21.3587 20.3597 20.8592 20.8594C20.3639 21.3544 19.7045 21.6271 19.0022 21.6271C18.3003 21.6271 17.6393 21.3546 17.1408 20.86C16.6404 20.3599 16.3659 19.6968 16.3672 18.9927C16.3686 18.2919 16.6433 17.634 17.1409 17.1401Z" fill="#1689AB"/>
<path d="M19.0023 21.1402C19.5746 21.1402 20.1117 20.9181 20.5151 20.515C20.9222 20.1076 21.146 19.5673 21.1449 18.9935C21.1438 18.423 20.9204 17.8875 20.5156 17.4855C20.1113 17.0781 19.5742 16.8545 19.0023 16.8545C18.4301 16.8545 17.891 17.0783 17.4845 17.4849C17.0789 17.8875 16.8552 18.4231 16.8541 18.9935C16.8531 19.5673 17.0769 20.1076 17.4845 20.515C17.8904 20.918 18.4297 21.1402 19.0023 21.1402Z" fill="#1689AB"/>
<path d="M29.2592 8.40191L30.7495 6.91315C30.7971 6.86565 30.8595 6.84198 30.9218 6.84198C30.8595 6.84205 30.7972 6.86573 30.7497 6.91315L23.8759 13.7799C23.7809 13.8749 23.7808 14.029 23.8758 14.1241C23.9234 14.1717 23.9856 14.1955 24.048 14.1955C24.1103 14.1955 24.1725 14.1717 24.22 14.1243L24.3947 13.9498L24.5861 14.1395C24.6721 14.2247 24.6825 14.3602 24.6104 14.4574L23.5244 15.9221C23.6746 16.1389 23.8088 16.3699 23.9305 16.6213L25.7382 16.4127C25.8581 16.399 25.9704 16.4752 26.0014 16.5921L26.2643 17.5831C26.2953 17.6994 26.2367 17.8208 26.1264 17.8688L24.459 18.595C24.4799 18.8629 24.4798 19.1342 24.4588 19.4054L26.1264 20.1316C26.2368 20.1797 26.2954 20.3013 26.2643 20.4176L26.0012 21.4015C25.9701 21.5178 25.8589 21.5939 25.7391 21.5806L23.9298 21.3782C23.8041 21.6353 23.6702 21.8663 23.5245 22.0777L24.61 23.5356C24.6822 23.6326 24.6724 23.7677 24.5869 23.8531L24.3922 24.0479L24.22 23.8759C24.1249 23.7809 23.9708 23.7811 23.8758 23.8761C23.7807 23.9712 23.7808 24.1253 23.8758 24.2204L30.7496 31.0874C30.7972 31.1349 30.8594 31.1585 30.9215 31.1586C30.9215 31.1586 30.9215 31.1586 30.9214 31.1586C30.8591 31.1586 30.7969 31.1349 30.7494 31.0874L29.2591 29.5986V32.113H32.1125V29.26H29.6093L28.0005 27.6529C32.6388 22.8341 32.6399 15.1711 28.0039 10.3443L29.6092 8.74064H32.1125V5.88745H29.2591V8.40191H29.2592ZM26.6571 26.3105L26.3126 25.9664C30.0218 22.0746 30.0217 15.9252 26.3125 12.0339L26.657 11.6898C30.5557 15.771 30.5557 22.2289 26.6571 26.3105Z" fill="#1689AB"/>
<path d="M33.2222 5.02821C33.2846 5.02821 33.3469 5.00446 33.3944 4.95682L34.0176 4.33323C34.1126 4.23815 34.1126 4.084 34.0175 3.98893C33.9224 3.89393 33.7683 3.894 33.6732 3.98908L33.05 4.61266C32.955 4.70774 32.955 4.86189 33.0501 4.95696C33.0976 5.00446 33.16 5.02821 33.2222 5.02821Z" fill="#1689AB"/>
<path d="M33.9086 6.44887C33.9377 6.55752 34.0361 6.62922 34.1435 6.62922C34.1643 6.62922 34.1856 6.62647 34.2068 6.62083L35.0593 6.39194C35.1891 6.35713 35.2661 6.22354 35.2311 6.09366C35.1963 5.96392 35.063 5.88688 34.9329 5.92169L34.0805 6.15058C33.9507 6.18547 33.8736 6.31899 33.9086 6.44887Z" fill="#1689AB"/>
<path d="M34.9962 8.71471C35.1037 8.71471 35.2021 8.64301 35.2312 8.53428C35.266 8.4044 35.189 8.27088 35.0591 8.23607L34.2067 8.00755C34.0768 7.97297 33.9433 8.04978 33.9085 8.17967C33.8737 8.30955 33.9507 8.44299 34.0806 8.47788L34.933 8.7064C34.9542 8.71204 34.9754 8.71471 34.9962 8.71471Z" fill="#1689AB"/>
<path d="M34.0167 10.2938L33.3935 9.67685C33.2981 9.5823 33.1439 9.58304 33.0493 9.67871C32.9546 9.77423 32.9555 9.92838 33.051 10.0229L33.6742 10.6398C33.7216 10.6868 33.7836 10.7103 33.8455 10.7103C33.9081 10.7103 33.9708 10.6862 34.0184 10.6381C34.1131 10.5425 34.1122 10.3883 34.0167 10.2938Z" fill="#1689AB"/>
<path d="M32.0781 11.5603L31.8497 10.7149C31.8146 10.5851 31.6811 10.5083 31.5511 10.5434C31.4214 10.5784 31.3446 10.7121 31.3796 10.8419L31.6081 11.6873C31.6375 11.7958 31.7357 11.8673 31.843 11.8673C31.8639 11.8673 31.8854 11.8645 31.9066 11.8588C32.0364 11.8238 32.1132 11.6901 32.0781 11.5603Z" fill="#1689AB"/>
<path d="M26.313 6.39178L27.1654 6.62067C27.1865 6.62631 27.2078 6.62906 27.2287 6.62906C27.3361 6.62906 27.4345 6.55736 27.4637 6.44871C27.4985 6.31882 27.4216 6.1853 27.2917 6.15042L26.4393 5.92153C26.3092 5.8865 26.1759 5.96369 26.1411 6.09349C26.1062 6.22345 26.1832 6.35697 26.313 6.39178Z" fill="#1689AB"/>
<path d="M27.9768 4.95584C28.0244 5.00401 28.0871 5.02821 28.1499 5.02821C28.2118 5.02821 28.2736 5.00475 28.3211 4.95792C28.4167 4.86337 28.4176 4.70929 28.3231 4.61362L27.7065 3.99004C27.612 3.89437 27.4579 3.89355 27.3623 3.98803C27.2666 4.08251 27.2658 4.23667 27.3603 4.33233L27.9768 4.95584Z" fill="#1689AB"/>
<path d="M29.5225 3.91947C29.5517 4.0282 29.6501 4.09997 29.7575 4.09997C29.7783 4.09997 29.7995 4.09723 29.8207 4.09159C29.9505 4.05678 30.0276 3.92326 29.9928 3.79338L29.7642 2.94097C29.7294 2.81109 29.596 2.73405 29.466 2.76886C29.3361 2.80374 29.2591 2.93719 29.294 3.06707L29.5225 3.91947Z" fill="#1689AB"/>
<path d="M31.5516 4.09129C31.5726 4.09693 31.5938 4.09968 31.6147 4.09968C31.7222 4.09968 31.8205 4.02791 31.8498 3.91918L32.0782 3.06678C32.113 2.93689 32.036 2.80337 31.9061 2.76857C31.7764 2.7339 31.6429 2.8108 31.6079 2.94068L31.3795 3.79308C31.3446 3.92304 31.4217 4.05656 31.5516 4.09129Z" fill="#1689AB"/>
<path d="M33.3944 33.0435C33.2994 32.9484 33.1452 32.9484 33.0501 33.0434C32.955 33.1384 32.955 33.2925 33.05 33.3876L33.6732 34.0112C33.7208 34.0589 33.783 34.0826 33.8454 34.0826C33.9077 34.0826 33.9699 34.0589 34.0174 34.0114C34.1125 33.9164 34.1125 33.7623 34.0175 33.6671L33.3944 33.0435Z" fill="#1689AB"/>
<path d="M31.8498 34.0811C31.8148 33.9512 31.6817 33.8742 31.5516 33.909C31.4217 33.9439 31.3446 34.0773 31.3795 34.2072L31.6079 35.0593C31.6372 35.168 31.7355 35.2398 31.843 35.2398C31.8637 35.2398 31.885 35.237 31.9061 35.2314C32.036 35.1966 32.113 35.0631 32.0782 34.9333L31.8498 34.0811Z" fill="#1689AB"/>
<path d="M29.8207 33.909C29.6907 33.8742 29.5574 33.9512 29.5225 34.0811L29.294 34.9332C29.2591 35.0629 29.3361 35.1965 29.466 35.2313C29.4871 35.237 29.5083 35.2397 29.5292 35.2397C29.6366 35.2397 29.735 35.1679 29.7642 35.0592L29.9928 34.2071C30.0276 34.0773 29.9505 33.9439 29.8207 33.909Z" fill="#1689AB"/>
<path d="M27.9768 33.0444L27.3603 33.668C27.2658 33.7637 27.2666 33.9178 27.3623 34.0123C27.4097 34.0592 27.4716 34.0826 27.5334 34.0826C27.5962 34.0826 27.6589 34.0585 27.7065 34.0103L28.3231 33.3867C28.4175 33.2911 28.4167 33.137 28.3211 33.0424C28.2255 32.9481 28.0714 32.9488 27.9768 33.0444Z" fill="#1689AB"/>
<path d="M27.4637 31.545C27.4289 31.4151 27.2952 31.338 27.1655 31.3729L26.3132 31.6014C26.1833 31.6363 26.1062 31.7697 26.1411 31.8996C26.1703 32.0083 26.2686 32.0801 26.376 32.0801C26.3969 32.0801 26.4181 32.0774 26.4392 32.0718L27.2917 31.8432C27.4215 31.8083 27.4985 31.6748 27.4637 31.545Z" fill="#1689AB"/>
<path d="M31.9066 26.1413C31.7768 26.1063 31.6432 26.183 31.6081 26.3127L31.3797 27.1582C31.3445 27.288 31.4214 27.4216 31.5512 27.4567C31.5725 27.4624 31.5938 27.4651 31.6148 27.4651C31.7221 27.4651 31.8204 27.3937 31.8497 27.2851L32.0781 26.4397C32.1132 26.31 32.0364 26.1763 31.9066 26.1413Z" fill="#1689AB"/>
<path d="M33.6733 27.3546L33.0501 27.9781C32.9551 28.0732 32.9551 28.2273 33.0502 28.3224C33.0977 28.3699 33.16 28.3936 33.2222 28.3936C33.2846 28.3936 33.3469 28.3698 33.3944 28.3222L34.0176 27.6986C34.1126 27.6036 34.1126 27.4495 34.0174 27.3544C33.9225 27.2594 33.7683 27.2595 33.6733 27.3546Z" fill="#1689AB"/>
<path d="M34.9331 29.2942L34.0807 29.5228C33.9508 29.5576 33.8738 29.6911 33.9086 29.8209C33.9378 29.9297 34.0361 30.0014 34.1436 30.0014C34.1644 30.0014 34.1856 29.9988 34.2068 29.9931L35.0592 29.7646C35.1891 29.7297 35.2661 29.5962 35.2313 29.4664C35.1964 29.3365 35.063 29.2595 34.9331 29.2942Z" fill="#1689AB"/>
<path d="M35.0591 31.6014L34.2067 31.3728C34.0768 31.3381 33.9434 31.4151 33.9085 31.545C33.8737 31.6748 33.9507 31.8083 34.0806 31.8431L34.933 32.0717C34.9541 32.0772 34.9753 32.08 34.9962 32.08C35.1037 32.08 35.2021 32.0082 35.2312 31.8995C35.266 31.7697 35.189 31.6362 35.0591 31.6014Z" fill="#1689AB"/>
<path d="M4.61257 33.0434L3.98861 33.667C3.89354 33.762 3.89354 33.9161 3.98854 34.0113C4.03611 34.0588 4.09838 34.0826 4.16073 34.0826C4.223 34.0826 4.28526 34.0588 4.33276 34.0113L4.95672 33.3878C5.0518 33.2928 5.05187 33.1386 4.9568 33.0435C4.8618 32.9484 4.70764 32.9485 4.61257 33.0434Z" fill="#1689AB"/>
<path d="M4.09094 31.5449C4.05613 31.4151 3.92261 31.338 3.79273 31.3729L2.94092 31.6014C2.81111 31.6363 2.73407 31.7698 2.76895 31.8997C2.79812 32.0084 2.89646 32.0801 3.00393 32.0801C3.02478 32.0801 3.04601 32.0774 3.06724 32.0718L3.91905 31.8432C4.04871 31.8083 4.12574 31.6747 4.09094 31.5449Z" fill="#1689AB"/>
<path d="M2.76889 29.4663C2.73401 29.5962 2.81105 29.7297 2.94086 29.7646L3.79266 29.9931C3.81382 29.9987 3.83504 30.0014 3.8559 30.0014C3.96337 30.0014 4.06171 29.9297 4.09088 29.821C4.12568 29.6912 4.04872 29.5576 3.91891 29.5228L3.0671 29.2942C2.937 29.2595 2.8037 29.3366 2.76889 29.4663Z" fill="#1689AB"/>
<path d="M4.33276 27.3545C4.23776 27.2594 4.08361 27.2595 3.98854 27.3546C3.89354 27.4496 3.89354 27.6037 3.98861 27.6988L4.61257 28.3224C4.66007 28.37 4.72234 28.3937 4.78461 28.3937C4.84695 28.3937 4.90922 28.3699 4.9568 28.3223C5.0518 28.2272 5.0518 28.0732 4.95672 27.978L4.33276 27.3545Z" fill="#1689AB"/>
<path d="M5.92141 26.44L6.15053 27.2855C6.17992 27.3938 6.27811 27.4652 6.38536 27.4652C6.40643 27.4652 6.42788 27.4625 6.44918 27.4567C6.57892 27.4216 6.65559 27.2878 6.62048 27.1581L6.39137 26.3127C6.35619 26.183 6.22274 26.1061 6.09279 26.1414C5.96298 26.1765 5.88631 26.3102 5.92141 26.44Z" fill="#1689AB"/>
<path d="M11.6874 31.6014L10.8418 31.3729C10.7122 31.3381 10.5784 31.4146 10.5433 31.5444C10.5082 31.6742 10.585 31.8078 10.7148 31.8429L11.5605 32.0714C11.5818 32.0772 11.6031 32.0799 11.6241 32.0799C11.7314 32.0799 11.8296 32.0084 11.859 31.8999C11.894 31.7702 11.8173 31.6366 11.6874 31.6014Z" fill="#1689AB"/>
<path d="M10.0222 33.0435C9.92724 32.9484 9.77309 32.9485 9.67794 33.0434C9.58287 33.1385 9.58287 33.2925 9.67787 33.3877L10.3012 34.0113C10.3488 34.0588 10.4111 34.0826 10.4734 34.0826C10.5357 34.0826 10.598 34.0588 10.6455 34.0113C10.7405 33.9163 10.7406 33.7622 10.6455 33.667L10.0222 33.0435Z" fill="#1689AB"/>
<path d="M8.47754 34.0811C8.44274 33.9512 8.30936 33.8742 8.17933 33.909C8.04945 33.9439 7.97241 34.0774 8.00729 34.2072L8.23581 35.0593C8.26498 35.168 8.36332 35.2398 8.47079 35.2398C8.49165 35.2398 8.51287 35.2371 8.53402 35.2314C8.66391 35.1966 8.74095 35.063 8.70606 34.9333L8.47754 34.0811Z" fill="#1689AB"/>
<path d="M6.44866 33.9091C6.31892 33.8741 6.18525 33.9511 6.15037 34.0809L5.92133 34.933C5.88637 35.0628 5.96334 35.1964 6.09315 35.2313C6.1143 35.237 6.1356 35.2397 6.15653 35.2397C6.26393 35.2397 6.36227 35.168 6.39151 35.0595L6.62062 34.2073C6.65543 34.0775 6.57846 33.944 6.44866 33.9091Z" fill="#1689AB"/>
<path d="M4.61257 4.95699C4.66014 5.00449 4.72234 5.02824 4.78461 5.02824C4.84695 5.02824 4.90922 5.00449 4.9568 4.95684C5.0518 4.86177 5.0518 4.70769 4.95672 4.61262L4.33276 3.98896C4.23769 3.89396 4.08361 3.89396 3.98854 3.9891C3.89354 4.08418 3.89354 4.23826 3.98861 4.33333L4.61257 4.95699Z" fill="#1689AB"/>
<path d="M6.15038 3.91939C6.17963 4.02812 6.27789 4.09974 6.38536 4.09974C6.40629 4.09974 6.42752 4.097 6.44867 4.09128C6.57855 4.05647 6.65552 3.92288 6.62056 3.79307L6.39145 2.94067C6.35649 2.81086 6.22297 2.73353 6.09316 2.76878C5.96328 2.80359 5.88631 2.93718 5.92127 3.06706L6.15038 3.91939Z" fill="#1689AB"/>
<path d="M8.17946 4.09139C8.20061 4.09703 8.22176 4.09978 8.24262 4.09978C8.35008 4.09978 8.44842 4.02801 8.47759 3.91928L8.70611 3.06688C8.74099 2.93699 8.66388 2.80355 8.53407 2.76867C8.40397 2.73371 8.27074 2.8109 8.23594 2.94078L8.00742 3.79318C7.97253 3.92314 8.04957 4.05658 8.17946 4.09139Z" fill="#1689AB"/>
<path d="M9.85001 5.02822C9.91235 5.02822 9.97469 5.00447 10.0222 4.9569L10.6456 4.33324C10.7406 4.23816 10.7406 4.08409 10.6455 3.98894C10.5503 3.89394 10.3963 3.89401 10.3012 3.98901L9.67782 4.61267C9.58282 4.70775 9.58282 4.86182 9.67782 4.9569C9.72547 5.00447 9.78774 5.02822 9.85001 5.02822Z" fill="#1689AB"/>
<path d="M10.5433 6.44943C10.5727 6.55787 10.6709 6.62927 10.7781 6.62927C10.7991 6.62927 10.8206 6.62652 10.8419 6.62073L11.6875 6.39184C11.8173 6.35674 11.894 6.22307 11.8589 6.09326C11.8237 5.96352 11.6903 5.88663 11.5603 5.92189L10.7147 6.15078C10.5849 6.18596 10.5082 6.31955 10.5433 6.44943Z" fill="#1689AB"/>
<path d="M6.09273 11.8588C6.1141 11.8647 6.13548 11.8673 6.15656 11.8673C6.26373 11.8673 6.362 11.7959 6.39139 11.6876L6.6205 10.8421C6.65568 10.7124 6.57894 10.5787 6.4492 10.5436C6.3191 10.5081 6.18573 10.585 6.15062 10.7148L5.92151 11.5602C5.88633 11.6899 5.963 11.8237 6.09273 11.8588Z" fill="#1689AB"/>
<path d="M4.6135 9.67672L3.98955 10.2936C3.89388 10.3882 3.89306 10.5423 3.98754 10.6378C4.03519 10.6861 4.09791 10.7102 4.1607 10.7102C4.22252 10.7102 4.28442 10.6868 4.33184 10.6399L4.9558 10.023C5.05147 9.92854 5.05229 9.77439 4.95773 9.67879C4.86325 9.58313 4.70917 9.58224 4.6135 9.67672Z" fill="#1689AB"/>
<path d="M4.09095 8.1797C4.05614 8.04982 3.92262 7.97278 3.79274 8.00766L2.94093 8.23618C2.81105 8.27106 2.73401 8.40451 2.76889 8.53439C2.79806 8.64312 2.8964 8.71482 3.00387 8.71482C3.02472 8.71482 3.04595 8.71207 3.0671 8.70643L3.91898 8.47791C4.04872 8.4431 4.12576 8.30958 4.09095 8.1797Z" fill="#1689AB"/>
<path d="M2.94086 6.39195L3.79266 6.62084C3.81382 6.62648 3.83512 6.62922 3.85597 6.62922C3.96337 6.62922 4.06171 6.55753 4.09095 6.44887C4.12583 6.31906 4.04887 6.18555 3.91898 6.15059L3.06718 5.9217C2.93722 5.88689 2.80385 5.96385 2.76889 6.09366C2.73401 6.22354 2.81105 6.35706 2.94086 6.39195Z" fill="#1689AB"/>
</svg>
