<svg width="39" height="39" viewBox="0 0 39 39" fill="none" xmlns="http://www.w3.org/2000/svg">
<path d="M33.9787 9.0675C33.8895 8.87298 33.7627 8.69801 33.6056 8.55263C33.4486 8.40725 33.2644 8.29433 33.0635 8.22034C32.8627 8.14636 32.6493 8.11277 32.4354 8.1215C32.2216 8.13024 32.0116 8.18113 31.8175 8.27125C31.2541 8.43868 30.6609 8.48034 30.0796 8.39329C29.4984 8.30625 28.9433 8.09262 28.4537 7.7675C26.783 7.01812 24.971 6.63578 23.14 6.64625L23.5137 5.2975C23.5772 5.05525 23.5838 4.8016 23.5331 4.55636C23.4824 4.31112 23.3756 4.08093 23.2212 3.88375C23.0699 3.6871 22.8754 3.52774 22.6529 3.41788C22.4304 3.30803 22.1857 3.2506 21.9375 3.25H17.0625C16.8143 3.2506 16.5696 3.30803 16.3471 3.41788C16.1245 3.52774 15.9301 3.6871 15.7787 3.88375C15.6243 4.08093 15.5176 4.31112 15.4669 4.55636C15.4161 4.8016 15.4228 5.05525 15.4862 5.2975L16.3637 8.5475C16.4539 8.88322 16.6493 9.18118 16.9213 9.39762C17.1934 9.61405 17.5276 9.73756 17.875 9.75H20.3612C20.5935 9.88127 20.8586 9.9433 21.125 9.92875C23.035 9.77496 24.9561 10.0241 26.7637 10.66C28.0195 11.3588 29.4382 11.7121 30.875 11.6838C31.6887 11.6964 32.4962 11.5416 33.2475 11.2288C33.6289 11.0368 33.9194 10.7025 34.0562 10.298C34.193 9.89361 34.1652 9.45158 33.9787 9.0675Z" fill="#4ED1F8"/>
<path d="M31.6713 21.4013L29.4288 13.8775C28.7873 11.7431 27.475 9.87224 25.6866 8.5423C23.8981 7.21235 21.7287 6.49414 19.5 6.49414C17.2713 6.49414 15.1019 7.21235 13.3134 8.5423C11.525 9.87224 10.2128 11.7431 9.57125 13.8775L7.32875 21.4013C6.77887 23.2137 6.49961 25.0973 6.5 26.9913C6.49859 28.7272 7.0532 30.4179 8.08255 31.8157C9.11189 33.2135 10.5619 34.2449 12.22 34.7588C14.5842 35.4477 17.0377 35.7817 19.5 35.75C21.9624 35.7817 24.4158 35.4477 26.78 34.7588C28.4381 34.2449 29.8881 33.2135 30.9175 31.8157C31.9468 30.4179 32.5014 28.7272 32.5 26.9913C32.5004 25.0973 32.2211 23.2137 31.6713 21.4013Z" fill="black"/>
<path d="M20.3125 19.5H18.6875C18.472 19.5 18.2654 19.4144 18.113 19.262C17.9606 19.1097 17.875 18.903 17.875 18.6875C17.875 18.472 17.9606 18.2653 18.113 18.113C18.2654 17.9606 18.472 17.875 18.6875 17.875H22.75C23.181 17.875 23.5943 17.7038 23.8991 17.399C24.2038 17.0943 24.375 16.681 24.375 16.25C24.375 15.819 24.2038 15.4057 23.8991 15.101C23.5943 14.7962 23.181 14.625 22.75 14.625H21.125C21.125 14.194 20.9538 13.7807 20.6491 13.476C20.3443 13.1712 19.931 13 19.5 13C19.069 13 18.6557 13.1712 18.351 13.476C18.0462 13.7807 17.875 14.194 17.875 14.625V14.7063C16.8877 14.9067 16.0101 15.4669 15.4126 16.2781C14.815 17.0892 14.5402 18.0934 14.6415 19.0958C14.7427 20.0981 15.2128 21.0271 15.9605 21.7024C16.7081 22.3776 17.68 22.751 18.6875 22.75H20.3125C20.528 22.75 20.7347 22.8356 20.887 22.988C21.0394 23.1403 21.125 23.347 21.125 23.5625C21.125 23.778 21.0394 23.9846 20.887 24.137C20.7347 24.2894 20.528 24.375 20.3125 24.375H16.25C15.819 24.375 15.4057 24.5462 15.101 24.851C14.7962 25.1557 14.625 25.569 14.625 26C14.625 26.431 14.7962 26.8443 15.101 27.149C15.4057 27.4538 15.819 27.625 16.25 27.625H17.875C17.875 28.056 18.0462 28.4693 18.351 28.774C18.6557 29.0788 19.069 29.25 19.5 29.25C19.931 29.25 20.3443 29.0788 20.6491 28.774C20.9538 28.4693 21.125 28.056 21.125 27.625C22.2024 27.5173 23.193 26.9859 23.8786 26.1479C24.5643 25.3098 24.889 24.2337 24.7813 23.1562C24.6735 22.0788 24.1422 21.0883 23.3041 20.4026C22.4661 19.7169 21.3899 19.3923 20.3125 19.5Z" fill="#4ED1F8"/>
</svg>
