<svg width="39" height="39" viewBox="0 0 39 39" fill="none" xmlns="http://www.w3.org/2000/svg">
<path d="M19.5 16.25C23.0898 16.25 26 13.3398 26 9.75C26 6.16015 23.0898 3.25 19.5 3.25C15.9101 3.25 13 6.16015 13 9.75C13 13.3398 15.9101 16.25 19.5 16.25Z" fill="#1689AB"/>
<path opacity="0.5" d="M29.4039 24.4257C28.7136 24.375 27.8666 24.375 26.8125 24.375C24.1314 24.375 22.7908 24.375 21.958 25.208C21.125 26.0408 21.125 27.3814 21.125 30.0625C21.125 31.9577 21.125 33.1831 21.4193 34.0329C20.7953 34.0935 20.1541 34.125 19.5 34.125C13.2178 34.125 8.125 31.2148 8.125 27.625C8.125 24.0352 13.2178 21.125 19.5 21.125C23.7468 21.125 27.4501 22.4549 29.4039 24.4257Z" fill="#1689AB"/>
<path fill-rule="evenodd" clip-rule="evenodd" d="M26.8125 35.75C24.1314 35.75 22.7908 35.75 21.958 34.917C21.125 34.0842 21.125 32.7436 21.125 30.0625C21.125 27.3814 21.125 26.0408 21.958 25.208C22.7908 24.375 24.1314 24.375 26.8125 24.375C29.4936 24.375 30.8342 24.375 31.667 25.208C32.5 26.0408 32.5 27.3814 32.5 30.0625C32.5 32.7436 32.5 34.0842 31.667 34.917C30.8342 35.75 29.4936 35.75 26.8125 35.75ZM27.7604 27.5347C27.7604 27.0112 27.3361 26.5868 26.8125 26.5868C26.2889 26.5868 25.8646 27.0112 25.8646 27.5347V29.1146H24.2846C23.7612 29.1146 23.3368 29.5389 23.3368 30.0625C23.3368 30.5861 23.7612 31.0104 24.2846 31.0104H25.8646V32.5903C25.8646 33.1138 26.2889 33.5382 26.8125 33.5382C27.3361 33.5382 27.7604 33.1138 27.7604 32.5903V31.0104H29.3403C29.8638 31.0104 30.2882 30.5861 30.2882 30.0625C30.2882 29.5389 29.8638 29.1146 29.3403 29.1146H27.7604V27.5347Z" fill="#1689AB"/>
</svg>
